<svg width="230" height="42" viewBox="0 0 230 42" fill="none" xmlns="http://www.w3.org/2000/svg">
<path d="M11.288 31.088C9.368 31.088 7.592 30.736 5.96 30.032C4.36 29.296 3.08 28.096 2.12 26.432C1.16 24.736 0.68 22.528 0.68 19.808C0.68 17.248 1.176 15.12 2.168 13.424C3.16 11.696 4.568 10.4 6.392 9.536C8.248 8.672 10.376 8.24 12.776 8.24C14.536 8.24 16.152 8.464 17.624 8.912C19.128 9.36 20.296 9.856 21.128 10.4C21.736 10.784 22.216 11.248 22.568 11.792C22.92 12.336 23.096 13.008 23.096 13.808V28.88H16.136V14.672C15.752 14.448 15.32 14.272 14.84 14.144C14.36 13.984 13.768 13.904 13.064 13.904C11.528 13.904 10.28 14.384 9.32 15.344C8.36 16.272 7.88 17.76 7.88 19.808C7.88 22.016 8.328 23.536 9.224 24.368C10.12 25.2 11.24 25.616 12.584 25.616C13.64 25.616 14.504 25.44 15.176 25.088C15.88 24.704 16.488 24.288 17 23.84L17.24 29.6C16.568 30.016 15.736 30.368 14.744 30.656C13.784 30.944 12.632 31.088 11.288 31.088ZM16.232 31.76V27.248H23.096V31.952C23.096 34.16 22.568 35.968 21.512 37.376C20.456 38.816 19.032 39.872 17.24 40.544C15.448 41.216 13.448 41.552 11.24 41.552C9.576 41.552 8.088 41.408 6.776 41.12C5.496 40.832 4.52 40.464 3.848 40.016C2.728 39.28 2.168 38.272 2.168 36.992C2.168 36.32 2.312 35.712 2.6 35.168C2.888 34.624 3.208 34.224 3.56 33.968C4.456 34.48 5.496 34.912 6.68 35.264C7.864 35.648 9.096 35.84 10.376 35.84C12.168 35.84 13.592 35.504 14.648 34.832C15.704 34.192 16.232 33.168 16.232 31.76ZM51.9245 20.48C51.9245 22.976 51.4125 25.152 50.3885 27.008C49.3965 28.832 47.9885 30.24 46.1645 31.232C44.3405 32.224 42.1965 32.72 39.7325 32.72C37.2685 32.72 35.1085 32.24 33.2525 31.28C31.4285 30.288 30.0045 28.88 28.9805 27.056C27.9885 25.2 27.4925 23.008 27.4925 20.48C27.4925 17.952 28.0045 15.776 29.0285 13.952C30.0525 12.128 31.4765 10.72 33.3005 9.728C35.1565 8.736 37.3005 8.24 39.7325 8.24C42.1645 8.24 44.2925 8.752 46.1165 9.776C47.9405 10.768 49.3645 12.176 50.3885 14C51.4125 15.824 51.9245 17.984 51.9245 20.48ZM39.6845 13.904C38.2125 13.904 37.0445 14.48 36.1805 15.632C35.3165 16.784 34.8845 18.4 34.8845 20.48C34.8845 22.592 35.3005 24.224 36.1325 25.376C36.9965 26.496 38.1965 27.056 39.7325 27.056C41.2365 27.056 42.4045 26.48 43.2365 25.328C44.1005 24.176 44.5325 22.56 44.5325 20.48C44.5325 18.4 44.1005 16.784 43.2365 15.632C42.3725 14.48 41.1885 13.904 39.6845 13.904ZM210.315 20.48C210.315 22.976 209.803 25.152 208.779 27.008C207.787 28.832 206.379 30.24 204.555 31.232C202.731 32.224 200.587 32.72 198.123 32.72C195.659 32.72 193.499 32.24 191.643 31.28C189.819 30.288 188.395 28.88 187.371 27.056C186.379 25.2 185.883 23.008 185.883 20.48C185.883 17.952 186.395 15.776 187.419 13.952C188.443 12.128 189.867 10.72 191.691 9.728C193.547 8.736 195.691 8.24 198.123 8.24C200.555 8.24 202.683 8.752 204.507 9.776C206.331 10.768 207.755 12.176 208.779 14C209.803 15.824 210.315 17.984 210.315 20.48ZM198.075 13.904C196.603 13.904 195.435 14.48 194.571 15.632C193.707 16.784 193.275 18.4 193.275 20.48C193.275 22.592 193.691 24.224 194.523 25.376C195.387 26.496 196.587 27.056 198.123 27.056C199.627 27.056 200.795 26.48 201.627 25.328C202.491 24.176 202.923 22.56 202.923 20.48C202.923 18.4 202.491 16.784 201.627 15.632C200.763 14.48 199.579 13.904 198.075 13.904ZM214.832 19.328H221.984V24.416C221.984 25.312 222.272 25.968 222.848 26.384C223.424 26.768 224.224 26.96 225.248 26.96C225.728 26.96 226.24 26.912 226.784 26.816C227.328 26.72 227.808 26.592 228.224 26.432C228.48 26.72 228.704 27.072 228.896 27.488C229.088 27.904 229.184 28.384 229.184 28.928C229.184 30.016 228.736 30.928 227.84 31.664C226.976 32.368 225.472 32.72 223.328 32.72C220.64 32.72 218.544 32.112 217.04 30.896C215.568 29.648 214.832 27.648 214.832 24.896V19.328ZM219.392 15.008V9.44H228.608C228.768 9.728 228.928 10.112 229.088 10.592C229.248 11.072 229.328 11.6 229.328 12.176C229.328 13.168 229.104 13.888 228.656 14.336C228.208 14.784 227.616 15.008 226.88 15.008H219.392ZM221.984 20.528H214.832V3.296C215.12 3.2 215.552 3.104 216.128 3.008C216.736 2.88 217.376 2.816 218.048 2.816C219.424 2.816 220.416 3.072 221.024 3.584C221.664 4.064 221.984 4.944 221.984 6.224V20.528Z" fill="#EE9B00"/>
<path d="M60.8199 8.864L60.7719 2.912H75.7479C75.9399 3.2 76.1159 3.6 76.2759 4.112C76.4359 4.624 76.5159 5.184 76.5159 5.792C76.5159 6.816 76.2759 7.584 75.7959 8.096C75.3159 8.608 74.6759 8.864 73.8759 8.864H60.8199ZM67.7799 2.912L67.8279 8.864H52.8999C52.6759 8.576 52.4839 8.176 52.3239 7.664C52.1959 7.12 52.1319 6.56 52.1319 5.984C52.1319 4.896 52.3559 4.112 52.8039 3.632C53.2839 3.152 53.9239 2.912 54.7239 2.912H67.7799ZM60.4839 7.568H67.9239V31.952C67.6039 32.048 67.1239 32.128 66.4839 32.192C65.8439 32.288 65.1879 32.336 64.5159 32.336C63.0439 32.336 62.0039 32.08 61.3959 31.568C60.7879 31.024 60.4839 30.112 60.4839 28.832V7.568ZM85.5778 15.2V21.104H78.3298V14.288C78.3298 13.392 78.5538 12.64 79.0018 12.032C79.4498 11.392 80.0578 10.816 80.8258 10.304C81.8818 9.664 83.1458 9.168 84.6178 8.816C86.1218 8.432 87.6898 8.24 89.3218 8.24C92.6178 8.24 94.2658 9.344 94.2658 11.552C94.2658 12.096 94.1858 12.592 94.0258 13.04C93.8978 13.488 93.7218 13.872 93.4978 14.192C93.1778 14.128 92.7778 14.08 92.2978 14.048C91.8498 13.984 91.3698 13.952 90.8578 13.952C89.8978 13.952 88.9378 14.064 87.9778 14.288C87.0498 14.512 86.2498 14.816 85.5778 15.2ZM78.3298 19.328L85.5778 19.472V31.952C85.2578 32.048 84.7938 32.128 84.1858 32.192C83.6098 32.288 82.9858 32.336 82.3138 32.336C80.9378 32.336 79.9298 32.096 79.2898 31.616C78.6498 31.136 78.3298 30.256 78.3298 28.976V19.328ZM106.726 32.768C103.43 32.768 100.806 32.128 98.8535 30.848C96.9015 29.568 95.9255 27.664 95.9255 25.136C95.9255 22.96 96.5975 21.296 97.9415 20.144C99.2855 18.96 101.286 18.224 103.942 17.936L110.374 17.264V16.736C110.374 15.648 109.942 14.864 109.078 14.384C108.246 13.904 107.046 13.664 105.478 13.664C104.262 13.664 103.062 13.808 101.878 14.096C100.726 14.384 99.6855 14.736 98.7575 15.152C98.3735 14.864 98.0375 14.464 97.7495 13.952C97.4935 13.408 97.3655 12.848 97.3655 12.272C97.3655 10.896 98.1015 9.904 99.5735 9.296C100.502 8.944 101.574 8.688 102.79 8.528C104.038 8.336 105.238 8.24 106.39 8.24C109.718 8.24 112.374 8.928 114.358 10.304C116.374 11.68 117.382 13.84 117.382 16.784V27.68C117.382 28.48 117.174 29.136 116.758 29.648C116.342 30.128 115.814 30.544 115.174 30.896C114.214 31.472 113.014 31.92 111.574 32.24C110.166 32.592 108.55 32.768 106.726 32.768ZM106.726 27.392C107.43 27.392 108.134 27.328 108.838 27.2C109.542 27.04 110.07 26.848 110.422 26.624V22.112L106.39 22.496C105.334 22.56 104.486 22.784 103.846 23.168C103.238 23.552 102.934 24.128 102.934 24.896C102.934 25.632 103.222 26.24 103.798 26.72C104.406 27.168 105.382 27.392 106.726 27.392ZM140.348 8.432C141.34 8.432 142.172 8.656 142.844 9.104C143.548 9.552 143.9 10.288 143.9 11.312C143.9 11.888 143.724 12.8 143.372 14.048C143.052 15.264 142.62 16.672 142.076 18.272C141.564 19.84 140.988 21.456 140.348 23.12C139.74 24.784 139.116 26.352 138.476 27.824C137.836 29.264 137.26 30.448 136.748 31.376C136.396 31.664 135.82 31.904 135.02 32.096C134.252 32.32 133.404 32.432 132.476 32.432C131.356 32.432 130.396 32.288 129.596 32C128.796 31.712 128.236 31.264 127.916 30.656C127.564 29.984 127.132 29.04 126.62 27.824C126.108 26.608 125.564 25.216 124.988 23.648C124.412 22.08 123.836 20.48 123.26 18.848C122.716 17.184 122.204 15.584 121.724 14.048C121.244 12.512 120.86 11.168 120.572 10.016C120.988 9.568 121.532 9.2 122.204 8.912C122.876 8.592 123.596 8.432 124.364 8.432C125.388 8.432 126.22 8.656 126.86 9.104C127.5 9.52 127.964 10.304 128.252 11.456L130.364 19.088C130.62 19.952 130.876 20.832 131.132 21.728C131.42 22.624 131.676 23.456 131.9 24.224C132.124 24.992 132.3 25.632 132.428 26.144H132.668C133.404 23.584 134.156 20.832 134.924 17.888C135.724 14.944 136.412 12.064 136.988 9.248C137.98 8.704 139.1 8.432 140.348 8.432ZM151.019 23.84L150.731 18.992L162.539 17.12C162.475 16.256 162.091 15.456 161.387 14.72C160.715 13.952 159.691 13.568 158.315 13.568C156.875 13.568 155.675 14.048 154.715 15.008C153.787 15.968 153.307 17.328 153.275 19.088L153.515 22.496C153.803 24.192 154.539 25.408 155.723 26.144C156.939 26.88 158.379 27.248 160.043 27.248C161.387 27.248 162.651 27.072 163.835 26.72C165.019 26.336 165.963 25.936 166.667 25.52C167.147 25.808 167.547 26.208 167.867 26.72C168.187 27.232 168.347 27.792 168.347 28.4C168.347 29.36 167.963 30.16 167.195 30.8C166.459 31.44 165.419 31.92 164.075 32.24C162.763 32.56 161.243 32.72 159.515 32.72C157.051 32.72 154.827 32.256 152.843 31.328C150.891 30.4 149.355 29.008 148.235 27.152C147.115 25.296 146.555 22.96 146.555 20.144C146.555 18.096 146.875 16.32 147.515 14.816C148.187 13.312 149.067 12.08 150.155 11.12C151.275 10.128 152.523 9.408 153.899 8.96C155.307 8.48 156.779 8.24 158.315 8.24C160.491 8.24 162.411 8.672 164.075 9.536C165.739 10.4 167.035 11.6 167.963 13.136C168.891 14.64 169.355 16.368 169.355 18.32C169.355 19.344 169.083 20.112 168.539 20.624C167.995 21.136 167.227 21.456 166.235 21.584L151.019 23.84ZM173.962 19.328L181.162 19.472V31.952C180.874 32.048 180.426 32.128 179.818 32.192C179.242 32.288 178.618 32.336 177.946 32.336C176.57 32.336 175.562 32.096 174.922 31.616C174.282 31.136 173.962 30.256 173.962 28.976V19.328ZM181.162 23.216L173.962 23.072V0.751999C174.25 0.655998 174.682 0.559999 175.258 0.464C175.866 0.367999 176.506 0.319999 177.178 0.319999C178.586 0.319999 179.594 0.559999 180.202 1.04C180.842 1.52 181.162 2.416 181.162 3.728V23.216Z" fill="#2C5768"/>
</svg>
